<svg style="position: absolute; width: 0; height: 0; overflow: hidden;" version="1.1"
     xmlns="http://www.w3.org/2000/svg">
    <defs>
        <symbol id="bolt" viewBox="0 0 560.317 560.316">
            <path d="M207.523,560.316c0,0,194.42-421.925,194.444-421.986l10.79-23.997c-41.824,12.02-135.271,34.902-135.57,35.833
			C286.96,122.816,329.017,0,330.829,0c-39.976,0-79.952,0-119.927,0l-12.167,57.938l-51.176,209.995l135.191-36.806
			L207.523,560.316z"/>
        </symbol>

        <symbol id="facebook" viewBox="0 0 24 24">
            <path d="m15.997 3.985h2.191v-3.816c-.378-.052-1.678-.169-3.192-.169-3.159 0-5.323 1.987-5.323 5.639v3.361h-3.486v4.266h3.486v10.734h4.274v-10.733h3.345l.531-4.266h-3.877v-2.939c.001-1.233.333-2.077 2.051-2.077z"/>
        </symbol>

        <symbol id="google" viewBox="0 0 96.828 96.827">
            <path d="M62.617,0H39.525c-10.29,0-17.413,2.256-23.824,7.552c-5.042,4.35-8.051,10.672-8.051,16.912
			c0,9.614,7.33,19.831,20.913,19.831c1.306,0,2.752-0.134,4.028-0.253l-0.188,0.457c-0.546,1.308-1.063,2.542-1.063,4.468
			c0,3.75,1.809,6.063,3.558,8.298l0.22,0.283l-0.391,0.027c-5.609,0.384-16.049,1.1-23.675,5.787
			c-9.007,5.355-9.707,13.145-9.707,15.404c0,8.988,8.376,18.06,27.09,18.06c21.76,0,33.146-12.005,33.146-23.863
			c0.002-8.771-5.141-13.101-10.6-17.698l-4.605-3.582c-1.423-1.179-3.195-2.646-3.195-5.364c0-2.672,1.772-4.436,3.336-5.992
			l0.163-0.165c4.973-3.917,10.609-8.358,10.609-17.964c0-9.658-6.035-14.649-8.937-17.048h7.663c0.094,0,0.188-0.026,0.266-0.077
			l6.601-4.15c0.188-0.119,0.276-0.348,0.214-0.562C63.037,0.147,62.839,0,62.617,0z M34.614,91.535
			c-13.264,0-22.176-6.195-22.176-15.416c0-6.021,3.645-10.396,10.824-12.997c5.749-1.935,13.17-2.031,13.244-2.031
			c1.257,0,1.889,0,2.893,0.126c9.281,6.605,13.743,10.073,13.743,16.678C53.141,86.309,46.041,91.535,34.614,91.535z
			 M34.489,40.756c-11.132,0-15.752-14.633-15.752-22.468c0-3.984,0.906-7.042,2.77-9.351c2.023-2.531,5.487-4.166,8.825-4.166
			c10.221,0,15.873,13.738,15.873,23.233c0,1.498,0,6.055-3.148,9.22C40.94,39.337,37.497,40.756,34.489,40.756z"/>
            <path d="M94.982,45.223H82.814V33.098c0-0.276-0.225-0.5-0.5-0.5H77.08c-0.276,0-0.5,0.224-0.5,0.5v12.125H64.473
			c-0.276,0-0.5,0.224-0.5,0.5v5.304c0,0.275,0.224,0.5,0.5,0.5H76.58V63.73c0,0.275,0.224,0.5,0.5,0.5h5.234
			c0.275,0,0.5-0.225,0.5-0.5V51.525h12.168c0.276,0,0.5-0.223,0.5-0.5v-5.302C95.482,45.446,95.259,45.223,94.982,45.223z"/>
        </symbol>

        <symbol id="facebook" viewBox="0 0 512 512">
            <path d="M288,176v-64c0-17.664,14.336-32,32-32h32V0h-64c-53.024,0-96,42.976-96,96v80h-64v80h64v256h96V256h64l32-80H288z"/>
        </symbol>

        <symbol id="lamp" viewBox="0 0 512.001 512.001">
            <path d="m367.521 46.181c-30.249-30.037-70.323-46.505-112.68-46.176-86.641.61-157.454 72.049-157.855 159.248-.166 35.976 11.396 69.966 33.439 98.297 15.602 20.051 22.559 44.246 22.559 78.451 0 47.579 8.831 104.8 9.578 109.556 4.034 31.315 30.588 65.139 93.109 66.441.194.004.427.005.625 0 62.521-1.302 89.075-35.125 93.108-66.439.747-4.742 9.579-61.715 9.579-101.557 0-37.295 7.787-67.71 21.926-85.642 49.785-63.144 44.857-154.344-13.388-212.179zm-40.628 336.82c-1.112 12.255-2.507 24.177-3.77 34h-134.21c-1.197-9.627-2.52-21.414-3.613-34zm-70.909 98.997c-34.024-.784-56.912-13.734-62.615-34.997h125.23c-5.703 21.262-28.591 34.212-62.615 34.997zm101.367-242.214c-18.293 23.201-28.367 60.212-28.367 104.217 0 2.897-.053 5.909-.15 9h-57.85v-122.787l27.606-27.607c5.858-5.858 5.858-15.355 0-21.213-5.857-5.858-15.355-5.858-21.213 0l-21.394 21.393-21.394-21.393c-5.857-5.858-15.355-5.858-21.213 0-5.858 5.859-5.858 15.355 0 21.213l27.606 27.607v122.787h-57.637c-1.1-27.448 2.794-72.697-29.245-113.873-17.875-22.974-27.251-50.546-27.116-79.736.327-71.078 58.192-129.391 128.984-129.391 71.209 0 129.014 58.588 129.014 130 .002 29.267-9.553 56.856-27.631 79.783z"/>
        </symbol>

        <symbol id="instagram" viewBox="0 0 438.536 438.536">
            <path d="M421.981,16.562C410.941,5.519,397.711,0,382.298,0H56.248C40.83,0,27.604,5.521,16.561,16.562
		C5.52,27.6,0.001,40.828,0.001,56.243V382.29c0,15.413,5.518,28.644,16.56,39.683c11.043,11.04,24.272,16.563,39.687,16.563
		h326.046c15.41,0,28.644-5.523,39.684-16.563c11.043-11.039,16.557-24.27,16.557-39.683V56.243
		C438.534,40.825,433.021,27.604,421.981,16.562z M157.462,158.025c17.224-16.652,37.924-24.982,62.097-24.982
		c24.36,0,45.153,8.33,62.381,24.982c17.228,16.655,25.837,36.785,25.837,60.386c0,23.598-8.609,43.729-25.837,60.379
		c-17.228,16.659-38.014,24.988-62.381,24.988c-24.172,0-44.87-8.336-62.097-24.988c-17.228-16.652-25.841-36.781-25.841-60.379
		C131.621,194.81,140.234,174.681,157.462,158.025z M388.865,370.589c0,4.945-1.718,9.083-5.141,12.416
		c-3.433,3.33-7.519,4.996-12.282,4.996h-305.2c-4.948,0-9.091-1.666-12.419-4.996c-3.333-3.326-4.998-7.471-4.998-12.416V185.575
		H89.08c-3.805,11.993-5.708,24.462-5.708,37.402c0,36.553,13.322,67.715,39.969,93.511c26.65,25.786,58.721,38.685,96.217,38.685
		c24.744,0,47.583-5.903,68.527-17.703c20.937-11.807,37.486-27.839,49.676-48.112c12.183-20.272,18.274-42.4,18.274-66.38
		c0-12.94-1.91-25.406-5.715-37.402h38.547v185.014H388.865z M388.865,115.626c0,5.52-1.903,10.184-5.716,13.99
		c-3.805,3.809-8.466,5.711-13.989,5.711h-49.676c-5.517,0-10.185-1.903-13.99-5.711c-3.806-3.806-5.708-8.47-5.708-13.99V68.522
		c0-5.33,1.902-9.945,5.708-13.848c3.806-3.901,8.474-5.854,13.99-5.854h49.676c5.523,0,10.185,1.952,13.989,5.854
		c3.812,3.903,5.716,8.518,5.716,13.848V115.626z"/>
        </symbol>

        <symbol id="internet" viewBox="0 0 402.041 402.04">
            <path d="M54.816,292.382c-15.229,0-28.169,5.331-38.831,15.988C5.33,319.026,0,331.969,0,347.197
			c0,15.232,5.325,28.172,15.985,38.828c10.662,10.657,23.606,15.988,38.831,15.988c15.227,0,28.168-5.331,38.828-15.988
			c10.656-10.656,15.986-23.596,15.986-38.828c0-15.229-5.33-28.171-15.986-38.827C82.987,297.713,70.046,292.382,54.816,292.382z"
            />
            <path d="M181.01,221.002c-21.51-21.698-46.158-38.97-73.948-51.816c-27.79-12.85-56.914-20.511-87.366-22.985h-1.425
			c-4.949,0-9.042,1.619-12.275,4.854C1.997,154.477,0,158.953,0,164.472v38.543c0,4.757,1.569,8.85,4.708,12.279
			c3.14,3.429,7.089,5.332,11.848,5.708c43.586,4.189,80.845,21.752,111.773,52.678c30.93,30.926,48.49,68.187,52.677,111.771
			c0.382,4.764,2.284,8.712,5.712,11.847c3.427,3.148,7.517,4.72,12.275,4.72h38.545c5.517,0,9.989-1.995,13.415-5.996
			c3.621-3.812,5.236-8.381,4.863-13.709c-2.478-30.447-10.14-59.573-22.987-87.361C219.983,267.16,202.708,242.514,181.01,221.002z
			"/>
            <path d="M367.728,239.701c-20.365-45.585-48.345-86.078-83.936-121.482c-35.405-35.594-75.896-63.572-121.485-83.939
			C116.723,13.917,68.996,2.494,19.126,0.02h-0.855c-4.949,0-9.136,1.713-12.563,5.14C1.903,8.583,0,12.964,0,18.294v40.825
			c0,4.76,1.667,8.897,4.996,12.419c3.33,3.523,7.373,5.376,12.132,5.57c40.924,2.478,79.799,12.188,116.63,29.127
			c36.83,16.94,68.806,38.972,95.93,66.09c27.118,27.123,49.149,59.101,66.089,95.931c16.94,36.836,26.557,75.705,28.839,116.627
			c0.195,4.764,2.046,8.809,5.564,12.139c3.524,3.329,7.762,4.999,12.71,4.999h40.823c5.331,0,9.701-1.902,13.134-5.715
			c3.809-3.806,5.517-8.274,5.144-13.415C399.52,333.017,388.093,285.291,367.728,239.701z"/>
        </symbol>

        <symbol id="keyboard" viewBox="0 0 548.176 548.176">
            <path d="M537.468,120.342c-7.139-7.139-15.753-10.709-25.841-10.709H36.545c-10.088,0-18.699,3.571-25.837,10.709
			C3.571,127.48,0,136.094,0,146.179v255.815c0,10.089,3.571,18.698,10.708,25.837c7.139,7.139,15.749,10.712,25.837,10.712h475.082
			c10.088,0,18.702-3.573,25.841-10.712c7.135-7.139,10.708-15.748,10.708-25.837V146.179
			C548.176,136.094,544.603,127.48,537.468,120.342z M511.627,401.994H36.545V146.179h475.082V401.994z"/>
            <path d="M77.657,365.445h27.408c3.046,0,4.569-1.526,4.569-4.568v-27.408c0-3.039-1.52-4.568-4.569-4.568H77.657
			c-3.044,0-4.568,1.529-4.568,4.568v27.408C73.089,363.919,74.613,365.445,77.657,365.445z"/>
            <path d="M77.657,292.362h63.954c3.045,0,4.57-1.53,4.57-4.572v-27.41c0-3.045-1.525-4.565-4.57-4.568H77.657
			c-3.044,0-4.568,1.523-4.568,4.568v27.41C73.089,290.832,74.613,292.362,77.657,292.362z"/>
            <path d="M77.657,219.268h27.408c3.046,0,4.569-1.525,4.569-4.57v-27.406c0-3.046-1.52-4.565-4.569-4.57H77.657
			c-3.044,0-4.568,1.524-4.568,4.57v27.406C73.089,217.743,74.613,219.268,77.657,219.268z"/>
            <path d="M397.43,328.903H150.751c-3.046,0-4.57,1.526-4.57,4.572v27.404c0,3.039,1.524,4.572,4.57,4.572h246.67
			c3.046,0,4.572-1.526,4.572-4.572v-27.404C401.994,330.43,400.468,328.903,397.43,328.903z"/>
            <path d="M182.725,287.79c0,3.042,1.523,4.572,4.565,4.572h27.412c3.044,0,4.565-1.53,4.565-4.572v-27.41
			c0-3.045-1.518-4.565-4.565-4.568H187.29c-3.042,0-4.565,1.523-4.565,4.568V287.79z"/>
            <path d="M150.751,219.268h27.406c3.046,0,4.57-1.525,4.57-4.57v-27.406c0-3.046-1.524-4.565-4.57-4.57h-27.406
			c-3.046,0-4.57,1.524-4.57,4.57v27.406C146.181,217.743,147.706,219.268,150.751,219.268z"/>
            <path d="M255.813,287.79c0,3.042,1.524,4.572,4.568,4.572h27.408c3.046,0,4.572-1.53,4.572-4.572v-27.41
			c0-3.045-1.526-4.565-4.572-4.568h-27.408c-3.044,0-4.568,1.523-4.568,4.568V287.79z"/>
            <path d="M223.837,219.268h27.406c3.046,0,4.57-1.525,4.57-4.57v-27.406c0-3.046-1.521-4.565-4.57-4.57h-27.406
			c-3.046,0-4.57,1.524-4.57,4.57v27.406C219.267,217.743,220.791,219.268,223.837,219.268z"/>
            <path d="M328.904,287.79c0,3.042,1.525,4.572,4.564,4.572h27.412c3.045,0,4.564-1.53,4.564-4.572v-27.41
			c0-3.045-1.52-4.565-4.564-4.568h-27.412c-3.039,0-4.564,1.523-4.564,4.568V287.79z"/>
            <path d="M470.513,328.903h-27.404c-3.046,0-4.572,1.526-4.572,4.572v27.404c0,3.039,1.526,4.572,4.572,4.572h27.404
			c3.046,0,4.572-1.526,4.572-4.572v-27.404C475.085,330.43,473.562,328.903,470.513,328.903z"/>
            <path d="M296.928,219.268h27.411c3.046,0,4.565-1.525,4.565-4.57v-27.406c0-3.046-1.52-4.565-4.565-4.57h-27.411
			c-3.046,0-4.565,1.524-4.565,4.57v27.406C292.362,217.743,293.882,219.268,296.928,219.268z"/>
            <path d="M370.018,219.268h27.404c3.046,0,4.572-1.525,4.572-4.57v-27.406c0-3.046-1.526-4.565-4.572-4.57h-27.404
			c-3.046,0-4.572,1.524-4.572,4.57v27.406C365.445,217.743,366.972,219.268,370.018,219.268z"/>
            <path d="M401.991,287.79c0,3.042,1.522,4.572,4.568,4.572h63.953c3.046,0,4.572-1.53,4.572-4.572V187.292
			c0-3.046-1.522-4.565-4.572-4.57h-27.404c-3.046,0-4.572,1.524-4.572,4.57v68.52H406.56c-3.046,0-4.568,1.523-4.568,4.568V287.79z
			"/>
        </symbol>

        <symbol id="pinterest" viewBox="0 0 97.75 97.75">
            <path d="M48.875,0C21.883,0,0,21.882,0,48.875S21.883,97.75,48.875,97.75S97.75,75.868,97.75,48.875S75.867,0,48.875,0z
		 M54.499,65.109c-4.521,0-8.773-2.444-10.229-5.219c0,0-2.432,9.645-2.943,11.506c-1.813,6.58-7.146,13.162-7.561,13.701
		c-0.289,0.375-0.928,0.258-0.994-0.24c-0.113-0.838-1.475-9.139,0.127-15.909c0.801-3.4,5.383-22.814,5.383-22.814
		s-1.334-2.673-1.334-6.625c0-6.205,3.596-10.837,8.074-10.837c3.807,0,5.645,2.859,5.645,6.286c0,3.828-2.436,9.552-3.693,14.856
		c-1.051,4.441,2.225,8.064,6.605,8.064c7.933,0,13.272-10.188,13.272-22.261c0-9.174-6.176-16.044-17.418-16.044
		c-12.697,0-20.615,9.471-20.615,20.052c0,3.646,1.078,6.221,2.764,8.21c0.773,0.915,0.883,1.283,0.602,2.333
		c-0.203,0.771-0.66,2.625-0.854,3.358c-0.279,1.062-1.137,1.44-2.098,1.049c-5.846-2.387-8.572-8.793-8.572-15.994
		c0-11.893,10.029-26.154,29.922-26.154c15.985,0,26.506,11.566,26.506,23.984C77.089,52.839,67.956,65.109,54.499,65.109z"/>
        </symbol>

        <symbol id="stumbleupon" viewBox="0 -46 512 512">
            <path d="m225 307.5c0-16.730469 0-190.582031 0-187.5 0-16.5 14.5-30 31-30s31 13.5 31 30v58.199219l31.199219 15.601562 43.800781-14.703125v-74.097656c0-56.429688-47.078125-105-106-105-58.941406 0-106 48.5625-106 105 0 3.078125 0 198.078125 0 195 0 16.5-13.5 30-30 30s-30-13.5-30-30c0-6.441406 0-78.964844 0-75h-90c0 9.503906 0 85.960938 0 82.5 0 62.101562 50.398438 112.5 112.5 112.5 62.617188 0 112.5-51.125 112.5-112.5zm0 0"/>
            <path d="m422 300c0 16.5-13.5 30-30 30s-30-13.5-30-30c0-5.203125 0-94.566406 0-89.101562l-46.199219 15.300781-28.800781-14.398438c0 4.476563 0 100.226563 0 95.699219 0 61.382812 49.890625 112.5 112.5 112.5 62.101562 0 112.5-50.398438 112.5-112.5 0-14.941406 0-86.648438 0-82.5h-90c0 5.367188 0 78.078125 0 75zm0 0"/>
        </symbol>

        <symbol id="twitter" viewBox="0 0 512 512">
            <path d="M512,97.248c-19.04,8.352-39.328,13.888-60.48,16.576c21.76-12.992,38.368-33.408,46.176-58.016
			c-20.288,12.096-42.688,20.64-66.56,25.408C411.872,60.704,384.416,48,354.464,48c-58.112,0-104.896,47.168-104.896,104.992
			c0,8.32,0.704,16.32,2.432,23.936c-87.264-4.256-164.48-46.08-216.352-109.792c-9.056,15.712-14.368,33.696-14.368,53.056
			c0,36.352,18.72,68.576,46.624,87.232c-16.864-0.32-33.408-5.216-47.424-12.928c0,0.32,0,0.736,0,1.152
			c0,51.008,36.384,93.376,84.096,103.136c-8.544,2.336-17.856,3.456-27.52,3.456c-6.72,0-13.504-0.384-19.872-1.792
			c13.6,41.568,52.192,72.128,98.08,73.12c-35.712,27.936-81.056,44.768-130.144,44.768c-8.608,0-16.864-0.384-25.12-1.44
			C46.496,446.88,101.6,464,161.024,464c193.152,0,298.752-160,298.752-298.688c0-4.64-0.16-9.12-0.384-13.568
			C480.224,136.96,497.728,118.496,512,97.248z"/>
        </symbol>

        <symbol id="data" viewBox="0 0 512 512">
            <path d="M412.907,214.08C398.4,140.693,333.653,85.333,256,85.333c-61.653,0-115.093,34.987-141.867,86.08
			C50.027,178.347,0,232.64,0,298.667c0,70.72,57.28,128,128,128h277.333C464.213,426.667,512,378.88,512,320
			C512,263.68,468.16,218.027,412.907,214.08z M298.667,277.333v85.333h-85.333v-85.333h-64L256,170.667l106.667,106.667H298.667z"
            />
        </symbol>

        <symbol id="download" viewBox="0 0 512 512">
            <path d="M412.907,214.08C398.4,140.693,333.653,85.333,256,85.333c-61.653,0-115.093,34.987-141.867,86.08
			C50.027,178.347,0,232.64,0,298.667c0,70.72,57.28,128,128,128h277.333C464.213,426.667,512,378.88,512,320
			C512,263.68,468.16,218.027,412.907,214.08z M256,384L149.333,277.333h64V192h85.333v85.333h64L256,384z"/>
        </symbol>

    </defs>
</svg>